/* XPM */
static const char *naranjita_xpm[] = {
/* width height num_colors chars_per_pixel */
"    31    32      256            2",
/* colors */
"`` c #44160c",
"`. c #4c8e5c",
"`# c #a4ca64",
"`a c #a44a24",
"`b c #c47e34",
"`c c #b48e3c",
"`d c #e4ce54",
"`e c #d44e14",
"`f c #dc7214",
"`g c #d4ee64",
"`h c #e47e24",
"`i c #74aa5c",
"`j c #d45e14",
"`k c #c4b24c",
"`l c #dcf664",
"`m c #ec5e0c",
"`n c #f46e0c",
"`o c #84ba6c",
"`p c #34765c",
"`q c #ecfe64",
"`r c #b4de6c",
"`s c #c49eb4",
"`t c #74aa7c",
"`u c #dcb6a4",
"`v c #dcfe64",
"`w c #ec660c",
"`x c #e48e24",
"`y c #fc7e0c",
"`z c #f47614",
"`A c #649e6c",
"`B c #dc9e34",
"`C c #e4ae3c",
"`D c #845e5c",
"`E c #e4be44",
"`F c #e4f664",
"`G c #3c8264",
"`H c #a4cea4",
"`I c #dce25c",
"`J c #84b264",
"`K c #dc6a14",
"`L c #fc6a14",
"`M c #6c2a14",
"`N c #e4520c",
"`O c #e4e65c",
"`P c #7cb25c",
"`Q c #ec6a2c",
"`R c #b4da6c",
"`S c #ac5e84",
"`T c #ec7a14",
"`U c #e4862c",
"`V c #fc6e0c",
"`W c #ccea6c",
"`X c #f4660c",
"`Y c #fc861c",
"`Z c #fc760c",
"`0 c #74a25c",
"`1 c #eca634",
"`2 c #dcba44",
"`3 c #e45a0c",
"`4 c #5c965c",
"`5 c #ec7214",
"`6 c #7caa5c",
"`7 c #dcf674",
"`8 c #f46214",
".` c #7cb684",
".. c #4c7e5c",
".# c #7cb284",
".a c #e49a2c",
".b c #f48224",
".c c #e4ee64",
".d c #cc5e24",
".e c #ec7e1c",
".f c #ec5e1c",
".g c #3c7e5c",
".h c #e4fe64",
".i c #6ca664",
".j c #ecda64",
".k c #e4660c",
".l c #8c3614",
".m c #ece664",
".n c #fc761c",
".o c #548e5c",
".p c #acd264",
".q c #ac8a9c",
".r c #dcd254",
".s c #e45e14",
".t c #dcfa64",
".u c #ec620c",
".v c #f4fe74",
".w c #c4e66c",
".x c #7cae7c",
".y c #ec923c",
".z c #6ca264",
".A c #ecae3c",
".B c #e4c64c",
".C c #e4fa64",
".D c #4c8a64",
".E c #e4de5c",
".F c #ec560c",
".G c #e4ea5c",
".H c #fc6e1c",
".I c #f46a0c",
".J c #fc7a0c",
".K c #f4aa3c",
".L c #ec6e2c",
".M c #7caa6c",
".N c #8cbe94",
".O c #c45a3c",
".P c #e4661c",
".Q c #642614",
".R c #acce6c",
".S c #c48a34",
".T c #e48224",
".U c #f47214",
".V c #3c765c",
".W c #ecfe74",
".X c #74ae84",
".Y c #e4c6b4",
".Z c #ec6a1c",
".0 c #e4922c",
".1 c #fc8214",
".2 c #64a274",
".3 c #e4aa3c",
".4 c #ecbe44",
".5 c #44825c",
".6 c #e4560c",
".7 c #bcda64",
".8 c #fc720c",
"#` c #ccee64",
"#. c #c46a94",
"## c #8c6a6c",
"#a c #541a14",
"#b c #ecd65c",
"#c c #cc7a4c",
"#d c #ec9644",
"#e c #acd6ac",
"#f c #84b694",
"#g c #8c3e14",
"#h c #8cbe64",
"#i c #e4b63c",
"#j c #fc7e1c",
"#k c #ecca54",
"#l c #bce26c",
"#m c #e4a234",
"#n c #ecaa44",
"#o c #ecb24c",
"#p c #e4b69c",
"#q c #ec5a14",
"#r c #cce664",
"#s c #e47214",
"#t c #7cb26c",
"#u c #e4fe74",
"#v c #548e6c",
"#w c #a4ce6c",
"#x c #d4f26c",
"#y c #e4c24c",
"#z c #74a664",
"#A c #7cae64",
"#B c #cc621c",
"#C c #e46a14",
"#D c #e46214",
"#E c #e4e25c",
"#F c #448664",
"#G c #e4ba44",
"#H c #e4b23c",
"#I c #6c2e14",
"#J c #e48a2c",
"#K c #ecaa34",
"#L c #dcfa74",
"#M c #ec722c",
"#N c #e46a1c",
"#O c #3c7a5c",
"#P c #84ba94",
"#Q c #fc821c",
"#R c #74aa64",
"#S c #dcf66c",
"#T c #ec5e14",
"#U c #f46e14",
"#V c #ecfe6c",
"#W c #74aa84",
"#X c #dcfe6c",
"#Y c #ec6614",
"#Z c #e48e2c",
"#0 c #fc7e14",
"#1 c #f4761c",
"#2 c #649e74",
"#3 c #e4f66c",
"#4 c #e4e664",
"#5 c #f46614",
"#6 c #fc7614",
"#7 c #e45a14",
"#8 c #5c9664",
"a` c #ec721c",
"a. c #7caa64",
"a# c #7cb28c",
"aa c #ec7e24",
"ab c #3c7e64",
"ac c #e4fe6c",
"ad c #548e64",
"ae c #dcfa6c",
"af c #ec6214",
"ag c #e4fa6c",
"ah c #e4de64",
"ai c #e4ea64",
"aj c #f46a14",
"ak c #fc7a14",
"al c #e4822c",
"am c #e45614",
"an c #bcda6c",
"ao c #fc7214",
"ap c #ccee6c",
"aq c #8c3e1c",
"ar c #cc6224",
"as c #e4621c",
"at c #000000",
"au c #000000",
"av c #000000",
"aw c #000000",
"ax c #000000",
"ay c #000000",
"az c #000000",
"aA c #000000",
"aB c #000000",
"aC c #000000",
"aD c #000000",
"aE c #000000",
"aF c #000000",
"aG c #000000",
"aH c #000000",
"aI c #000000",
"aJ c #000000",
"aK c #000000",
"aL c #000000",
"aM c #000000",
"aN c #000000",
"aO c #000000",
"aP c #000000",
"aQ c #000000",
"aR c #000000",
"aS c #000000",
"aT c #000000",
"aU c #000000",
"aV c #000000",
"aW c #000000",
"aX c #000000",
"aY c #000000",
"aZ c #000000",
"a0 c #000000",
"a1 c #000000",
"a2 c #000000",
"a3 c #000000",
"a4 c #000000",
"a5 c #000000",
"a6 c #000000",
"a7 c #000000",
"a8 c #000000",
/* pixels */
"ac`vac`vac`vac`vac`vac`vacac.hae`l`vac`vac`vac`vac`vac`vac`vac",
"`vac`vac`vac`vac`vac`vac`v`v#Va.`P#u.h#X.h#X.h#X.h#X.h#X.h#X.h",
"ac`vac`vac`vac`vac`vac`vacac#w`p#Rac`vac`vac`vac`vac`vac`vac`v",
"`vac`vac`vac`vac`vacac#X.hap`..D`W.hac`v`v#X#X.h#X.h#X.h#X.h#X",
"ac`vac`vac`vac`vac`v.h`v#V`#ab#8#l#`#X#V#V#Vacac`v`v#Xac`vac`v",
"`vac`vac`vac`vac`vac`v.t#V#t.D.D`A.x.M`i#h.p.w#xac#Vac.h#X.h#X",
"ac`vac`vac`vac`vac.h#Xacac.z.V..#2#W#W#P#f.#`A#8.i`o.p#X.h#X.h",
"`vac`vac`vac`v#X`vac.t.tac#z`i#r.7.oab`t.`.N`H#e.Na#`t#lac`vac",
"ac`vac`vac`vac.haeac#u#X.W`0.R.vac#x#z#O.g.g#F#v#F`P`W#xac`vac",
"`vac`vac`vac`vac#u`O#i.K`1`b`c#k.r#3#u`R#8.o#8`i`R.W.h.h`vac`v",
"ac`vac`vac`vacac#G`5`V`V.8ak#0#0`z`T.3ac#Sap#L#Vac`vac#X.h#X.h",
"`vac`vac`vac`F.a.Iakak.Jak`Zakak#6ak#U.Aac.hac`v`vac`vac`vac`v",
"ac`vac.hag#3`x`L`Zak#6`Zao`Zao.J#6`Z.Jao#Kac`v#X.h#X.h#X.h#X.h",
"`vac`v`vac.a`Xak#6.8#6`Z#6`Z#6`Zak#6`Zak`n`E#u.C#X.h#X.h#X.h#X",
"ac`vacac#y#D`Z`Z#6`Z#6ak`Z#6akakak`Z#6`Z#6`T#4ac`vac`vac`vac.h",
"`vac`v#3`f`X#6`Zao`Z#6`Z#6.Jakak#j#0#6`Zak`V`1#X#X.h#X.h#X.h#X",
"ac`vac#G.6ao#6`Z#6`Z#6ak`Z#Q#Qak#0#0ak#6#6#6`T.G#X.h#X.h#X.h#X",
"#X.hac`U.F#Y`Zak`Z`Z#6#6#6#Q#jak#Q#Q#6`Z`Z.J`X.Bac#X.h#X.h#X.h",
".h#X`g#C#7aj#6`j.Pak`Z#6`Z`n`z#Qak#0`Zak`5ak`8#mac.C#X.h#X.h#X",
".tac#E#D.s`w#Y``.Qao.J.U#c`u.Y`uaa#Q.1.Z#a.l.U#Jac`vac`vac`vac",
"`vac`I.s.safas`M.l#U#0#C##`s.q`D#N#0ak`5#Iaq`X.Tac`vac`vac`vac",
"acac#E.s#T.s`mafak#6`Zak`a`S#..O`Z`Zak`Z.n#0`Xalac`vac`vac`vac",
"`v#X`O#D#T`maf.uao#6ak#6#6#B.d`zao`Z#6#6`Zak`m#Zac`vac`vac`vac",
"ac.h.h`h`3.s.s.s.uao`Z`Z#6.J.J.8.J#6.8#6#6#U`N`Cac#X.h#X.h#X.h",
"`v#Xac.3`Naf#T#T.s.u.Uak`Zao#6`Z#6#6ao#6`w#q.P#4`vac`vac`vac`v",
"ac`v#X#E.k#7#T.s`m.safajak`Z`Zak#5#U`n.Zaf.s#nac#X.h#X.h#X.h#X",
"`vac`vac`C`Naf.s#T.s#q`mao#Uao.Uaj.Iafaf`3#M#4.h#X.h#X.h#X.h#X",
"ac`vac`v#3#J`Naf.s.saf.s`m.saf`w#6`w#q#7.P#o#X`vac#X.h#X.h#X.h",
"`vac`v.h`v`F.0.6#Taf.u#D#Tafaf.u#T.f`Q.y.jac.hac#X.h#X.h#X.h#X",
"ac`vac#X.h#Xac`2.d`e`N.F.6`N`N#7.L#d#bac`v.h`vac`vac`vac`vac.h",
".h#X.h#X.hac#X#u`g`k.S`B#H#i`E`dah#3#X`vac`vac`v#X.h#X.h#X.h#X",
"#X.h#X.h#X.h`v.Cacac#u#X#u#uacac#X.h`vac`vac`vac`vac`vac`vac`v"
};
