/* XPM */
static char *MTKeyTransform_xpm[] = {
/* width height num_colors chars_per_pixel */
"    40    25      216            2",
/* colors */
"`` c #0c0814",
"`. c #7c837c",
"`# c #811924",
"`a c #2c4634",
"`b c #7c5148",
"`c c #d8c294",
"`d c #4c1119",
"`e c #d88254",
"`f c #b45844",
"`g c #5c6764",
"`h c #7c6b5c",
"`i c #442f32",
"`j c #a99b87",
"`k c #a48874",
"`l c #584c48",
"`m c #c4a674",
"`n c #1c2a24",
"`o c #5a5856",
"`p c #9c6a50",
"`q c #682a20",
"`r c #948473",
"`s c #7f3934",
"`t c #9e5038",
"`u c #670f1c",
"`v c #7c786d",
"`w c #ec8562",
"`x c #6c7770",
"`y c #b87550",
"`z c #2c1a2c",
"`A c #6c5854",
"`B c #6c675e",
"`C c #4c3e2c",
"`D c #8a8e84",
"`E c #ac362c",
"`F c #7c5e5c",
"`G c #243624",
"`H c #141721",
"`I c #471e21",
"`J c #6c4838",
"`K c #a79171",
"`L c #6c3a24",
"`M c #cc7052",
"`N c #cc926c",
"`O c #8f6d59",
"`P c #9a8f7d",
"`Q c #947e5c",
"`R c #8c8473",
"`S c #84282c",
"`T c #e4a67c",
"`U c #5c615f",
"`V c #7c433f",
"`W c #ec9367",
"`X c #f4de9c",
"`Y c #a15f47",
"`Z c #671e22",
"`0 c #6f7169",
"`1 c #b49264",
"`2 c #905044",
"`3 c #da845c",
"`4 c #7f6d64",
"`5 c #34272c",
"`6 c #571019",
"`7 c #b9654d",
"`8 c #542f2c",
".` c #bcae8c",
".. c #7c7e71",
".# c #242020",
".a c #bc9a68",
".b c #593d3c",
".c c #a49684",
".d c #d17b59",
".e c #e8b88c",
".f c #8c4334",
".g c #495151",
".h c #ecbe7c",
".i c #645250",
".j c #978a7a",
".k c #a45a2c",
".l c #74685c",
".m c #6f5047",
".n c #743a2c",
".o c #fc9b69",
".p c #d48e6c",
".q c #c76544",
".r c #848a81",
".s c #7c5a4c",
".t c #64706c",
".u c #645950",
".v c #ac7a3c",
".w c #643234",
".x c #747e74",
".y c #746244",
".z c #972d2c",
".A c #7f7265",
".B c #56171e",
".C c #130f18",
".D c #8f222c",
".E c #aca28c",
".F c #5c524c",
".G c #671921",
".H c #847869",
".I c #747971",
".J c #c47e3c",
".K c #311f21",
".L c #90624c",
".M c #3c3840",
".N c #561f20",
".O c #9c9684",
".P c #8c8a7e",
".Q c #fcce94",
".R c #dcb284",
".S c #9c4739",
".T c #fcf6ac",
".U c #9c7a6c",
".V c #f4a571",
".W c #dcae84",
".X c #903c34",
".Y c #f8b284",
".Z c #f8c78a",
".0 c #d49a74",
".1 c #f18b61",
".2 c #3c4a4c",
".3 c #ac5947",
".4 c #b4825c",
".5 c #2c2838",
".6 c #c47054",
".7 c #343137",
".8 c #3c4234",
"#` c #3c141c",
"#. c #643e40",
"## c #dc7254",
"#a c #8c2c28",
"#b c #b4a284",
"#c c #ac7a64",
"#d c #4a585a",
"#e c #ac644c",
"#f c #741f21",
"#g c #743c3c",
"#h c #7e1f24",
"#i c #344a54",
"#j c #fc9367",
"#k c #e48e64",
"#l c #7c5a5c",
"#m c #74342c",
"#n c #dc8a3c",
"#o c #444244",
"#p c #84664c",
"#q c #94562c",
"#r c #f4aa74",
"#s c #9c5a4c",
"#t c #742c24",
"#u c #ac523c",
"#v c #dc9664",
"#w c #dc7e58",
"#x c #1c1214",
"#y c #fc8e5c",
"#z c #74121c",
"#A c #e4855c",
"#B c #c4763c",
"#C c #44362c",
"#D c #8c968c",
"#E c #48262c",
"#F c #d4765c",
"#G c #947264",
"#H c #7c2e34",
"#I c #844a3c",
"#J c #5c3634",
"#K c #fcbe74",
"#L c #a07e64",
"#M c #453d3e",
"#N c #a4917e",
"#O c #8c7d6e",
"#P c #22202e",
"#Q c #6d6155",
"#R c #44161c",
"#S c #843e3c",
"#T c #b46a54",
"#U c #5c4244",
"#V c #cc6a4c",
"#W c #d8ba8c",
"#X c #b43e2c",
"#Y c #6c4234",
"#Z c #8c4a3c",
"#0 c #fcd684",
"#1 c #b48a6c",
"#2 c #81665f",
"#3 c #8c5644",
"#4 c #6c4848",
"#5 c #3c4147",
"#6 c #845240",
"#7 c #846a54",
"#8 c #4c3030",
"a` c #9c8264",
"a. c #34161c",
"a# c #1c1921",
"aa c #646057",
"ab c #844234",
"ac c #f49664",
"ad c #fce19c",
"ae c #bc8e6c",
"af c #3c262c",
"ag c #5c322c",
"ah c #dc8c60",
"ai c #84563c",
"aj c #6c3624",
"ak c #a4765c",
"al c #dc9e64",
"am c #2c2e34",
"an c #74261c",
"ao c #744244",
"ap c #242a34",
"aq c #847e6f",
"ar c #ac967c",
"as c #fcaa64",
"at c #84867c",
"au c #646861",
/* pixels */
"`h`h.A`h.l`h`h`h.l`4.H#O#O`Q`r`r.j#N#N#N#N#Nar#N#N#N#B`y#t`S#X`f.U`D`4#O`Raq`P#N",
".l`h`h`h#2.y.l.l`h`h.H.H`r`r.j.j.j`k.j#N`Par.c#N`j#1#n.J`q`Z#a`E.3.U#2.P.P.jar.c",
"#2.l.l.l.l.l.l.l`h.A.H.A`Q#O.j`k#N.O#N#N#N`Par.R`c.a.v.kaj`I.G#h.z.S`4.Pat.j`j`j",
".l`h#Q.y.l#Q`h.l.l.A#O#O`r`r`r`r.j.j#N.c`R.mah.Z#0al.y.f.f`L`I.N#f.D#O.Paq.Oar#N",
".l.l#Q.l#Q#Q.l.l`h.A`v#O#O.j`P.j.O.j`P#N#M#I`3.V#K`e`V`t`t#q.n#tan.f`D.P.P`j`j`j",
"#Q#Q#Q.l#Q.l#Q.l.A`v.H#Oaq`R`r.j.j`Par`l.##e`M.1as`J`8.S.3.S.q`y.L`h.P`.`Par`j`j",
".l#Q#Q#Q#Q#Q`B.l.l.A.A#O`R`r`r.j#O`k.d.7#C.d##.1ai`n#C`Y.k.q#1`Da``Q`D`r#c`K.c`P",
"#Q#Q#Qaa.u#Q#Q.l.l.A`v.H#O`R`r.j#b`N#V`i`J`w#y`e`G`a`R.c#e.1.R.r#7.P`K`1.c.E`j#N",
"aa.u#Q.u#Q#Qaa`B.l`v.H.H.H.H#O.Wad`X.d`8`Y#A.o`y.8...c`jak#F#r.j#Qat`R.j`j`j`j`j",
".H.laa.uaaaa.y.laa.M#M.l.j.j#1.Zad.T.hag.6.1#jae.c`P`P.c.j`7ah#c.A`D`..j.c.O`P.c",
".c`P`R.A.y`B.F#5.5`z#3#L`T.Z.Z.e#Wad.a#.`w#j#n#G`K.`.c.c.O.m`q#a`4.rat.O`j.c.c.c",
"`P.c.c`P`P`la#a#`H`s.L#p`W.Y.Z.Y`K`m#p#T#j`W.m#5`Y.e`c`j#Q#`.G#h#g..at.c`j.c.O`j",
"atat.j`j`Ba##Pa#a#.n#6`J.dac.V.oas`Q.w.3`w#k`b.m`7`N.0#Z`Z`Z`Z`u#J`.`R`P`P`P.O.c",
".r.r.raaa##Pa#.u.F`5`i#I.q#F`w#j#v.A.N#f.f`t`f`7`7`e`M#a.D.D.B#R`B`.`P.c.c.j`P`P",
"`b`4atam#P.5.7`r`j.j`v.H.L#e#w`y`4.l.N.G#z`s`O.k.q.d`3#u#h`#`6`o`.`v`P.O.O`P`j`P",
"aq#l`baf`H#P.8.rat`P`j`j.Oa``Q.H`v`l#``6#m.H`R`v`b.6`e`f#h#f.i`..I...P.j.j`P.O.O",
".r`Daq`A.K#x`B#Dat`.at`P.c`j.O`P#O#E`d.B#Qaq`o#E`C`2`M.q`s#4.l.x.Iaq`P`P`R`R`P`P",
".r.r.r.x`o#M#U.l.P#Datatat.P.c`j#.`6`6.w`v.Hama.#Z#6`7`O`x`A`B`x`0at.j.P`R`P`P.P",
"at.r.rat`.`x`U#M.b#2.r`D.ratat#D#g`6`u`V.E`0#x.C`I#Yau.t`0.m`0.t`0aq`R`R`R`P`P.P",
"atatat.P.P`Dat.I.g.M.b#2at.ratat#.`6`u`V`B#x.C#Pap.gau`g.u.u.t.t`0`Raq.Haq`R`R`R",
"atat`.`v...I`v.I`0#d.M.7#8#o.g`U#E`d`6`qaf``a#`vat`..I.t.u.F`gau.Aaqaqaq`R`R#Oaq",
"`0`0.I.I`v.x`.atat`.`0#d#5.7`5.7af`6#z.za#.C.C.g`Dataq`..xaoaa`U`B`v.H.Haq#Oaq#O",
".r`D.P.r.r.Pat`.atatat`..t`U`U.i.B`#.D#a.7a#.C.C.7.I.rat`D`F.m.xauau.l`0.H#O.Haq",
"atatat.ratat.ratatatatatat.r`.`x#g.X.X`2.F#iap.C``.F.r..`.at#H`v`..I`0.l`0`4.Iaq",
"`D.r.rat.P.ratatatatatat.ratat`x`4`p`p.s`8#C.g.2#5.t.rat`.`Dao`V`D....`v`v.A.l.l"
};
