/* XPM */
static const char *MTRotator_xpm[] = {
/* width height num_colors chars_per_pixel */
"    40    25      256            2",
/* colors */
"`` c #f8f8f8",
"`. c None",
"`# c #bcbcbc",
"`a c #fc8c70",
"`b c #ec9804",
"`c c #008000",
"`d c #e46c50",
"`e c #c44c28",
"`f c #c06404",
"`g c #cc2404",
"`h c #800000",
"`i c #444444",
"`j c #603410",
"`k c #343434",
"`l c #000000",
"`m c #000000",
"`n c #000033",
"`o c #000066",
"`p c #000099",
"`q c #0000cc",
"`r c #0000ff",
"`s c #003300",
"`t c #003333",
"`u c #003366",
"`v c #003399",
"`w c #0033cc",
"`x c #0033ff",
"`y c #006600",
"`z c #006633",
"`A c #006666",
"`B c #006699",
"`C c #0066cc",
"`D c #0066ff",
"`E c #009900",
"`F c #009933",
"`G c #009966",
"`H c #009999",
"`I c #0099cc",
"`J c #0099ff",
"`K c #00cc00",
"`L c #00cc33",
"`M c #00cc66",
"`N c #00cc99",
"`O c #00cccc",
"`P c #00ccff",
"`Q c #00ff00",
"`R c #00ff33",
"`S c #00ff66",
"`T c #00ff99",
"`U c #00ffcc",
"`V c #00ffff",
"`W c #330000",
"`X c #330033",
"`Y c #330066",
"`Z c #330099",
"`0 c #3300cc",
"`1 c #3300ff",
"`2 c #333300",
"`3 c #333333",
"`4 c #333366",
"`5 c #333399",
"`6 c #3333cc",
"`7 c #3333ff",
"`8 c #336600",
".` c #336633",
".. c #336666",
".# c #336699",
".a c #3366cc",
".b c #3366ff",
".c c #339900",
".d c #339933",
".e c #339966",
".f c #339999",
".g c #3399cc",
".h c #3399ff",
".i c #33cc00",
".j c #33cc33",
".k c #33cc66",
".l c #33cc99",
".m c #33cccc",
".n c #33ccff",
".o c #33ff00",
".p c #33ff33",
".q c #33ff66",
".r c #33ff99",
".s c #33ffcc",
".t c #33ffff",
".u c #660000",
".v c #660033",
".w c #660066",
".x c #660099",
".y c #6600cc",
".z c #6600ff",
".A c #663300",
".B c #663333",
".C c #663366",
".D c #663399",
".E c #6633cc",
".F c #6633ff",
".G c #666600",
".H c #666633",
".I c #666666",
".J c #666699",
".K c #6666cc",
".L c #6666ff",
".M c #669900",
".N c #669933",
".O c #669966",
".P c #669999",
".Q c #6699cc",
".R c #6699ff",
".S c #66cc00",
".T c #66cc33",
".U c #66cc66",
".V c #66cc99",
".W c #66cccc",
".X c #66ccff",
".Y c #66ff00",
".Z c #66ff33",
".0 c #66ff66",
".1 c #66ff99",
".2 c #66ffcc",
".3 c #66ffff",
".4 c #990000",
".5 c #990033",
".6 c #990066",
".7 c #990099",
".8 c #9900cc",
"#` c #9900ff",
"#. c #993300",
"## c #993333",
"#a c #993366",
"#b c #993399",
"#c c #9933cc",
"#d c #9933ff",
"#e c #996600",
"#f c #996633",
"#g c #996666",
"#h c #996699",
"#i c #9966cc",
"#j c #9966ff",
"#k c #999900",
"#l c #999933",
"#m c #999966",
"#n c #999999",
"#o c #9999cc",
"#p c #9999ff",
"#q c #99cc00",
"#r c #99cc33",
"#s c #99cc66",
"#t c #99cc99",
"#u c #99cccc",
"#v c #99ccff",
"#w c #99ff00",
"#x c #99ff33",
"#y c #99ff66",
"#z c #99ff99",
"#A c #99ffcc",
"#B c #99ffff",
"#C c #cc0000",
"#D c #cc0033",
"#E c #cc0066",
"#F c #cc0099",
"#G c #cc00cc",
"#H c #cc00ff",
"#I c #cc3300",
"#J c #cc3333",
"#K c #cc3366",
"#L c #cc3399",
"#M c #cc33cc",
"#N c #cc33ff",
"#O c #cc6600",
"#P c #cc6633",
"#Q c #cc6666",
"#R c #cc6699",
"#S c #cc66cc",
"#T c #cc66ff",
"#U c #cc9900",
"#V c #cc9933",
"#W c #cc9966",
"#X c #cc9999",
"#Y c #cc99cc",
"#Z c #cc99ff",
"#0 c #cccc00",
"#1 c #cccc33",
"#2 c #cccc66",
"#3 c #cccc99",
"#4 c #cccccc",
"#5 c #ccccff",
"#6 c #ccff00",
"#7 c #ccff33",
"#8 c #ccff66",
"a` c #ccff99",
"a. c #ccffcc",
"a# c #ccffff",
"aa c #ff0000",
"ab c #ff0033",
"ac c #ff0066",
"ad c #ff0099",
"ae c #ff00cc",
"af c #ff00ff",
"ag c #ff3300",
"ah c #ff3333",
"ai c #ff3366",
"aj c #ff3399",
"ak c #ff33cc",
"al c #ff33ff",
"am c #ff6600",
"an c #ff6633",
"ao c #ff6666",
"ap c #ff6699",
"aq c #ff66cc",
"ar c #ff66ff",
"as c #ff9900",
"at c #ff9933",
"au c #ff9966",
"av c #ff9999",
"aw c #ff99cc",
"ax c #ff99ff",
"ay c #ffcc00",
"az c #ffcc33",
"aA c #ffcc66",
"aB c #ffcc99",
"aC c #ffcccc",
"aD c #ffccff",
"aE c #ffff00",
"aF c #ffff33",
"aG c #ffff66",
"aH c #ffff99",
"aI c #ffffcc",
"aJ c #ffffff",
"aK c #000000",
"aL c #0d0d0d",
"aM c #1a1a1a",
"aN c #282828",
"aO c #353535",
"aP c #434343",
"aQ c #505050",
"aR c #5d5d5d",
"aS c #6b6b6b",
"aT c #787878",
"aU c #868686",
"aV c #939393",
"aW c #a1a1a1",
"aX c #aeaeae",
"aY c #bbbbbb",
"aZ c #c9c9c9",
"a0 c #d6d6d6",
"a1 c #e4e4e4",
"a2 c #f1f1f1",
"a3 c #ffffff",
"a4 c #000000",
"a5 c #010101",
"a6 c #020202",
"a7 c #030303",
"a8 c #040404",
/* pixels */
"`.`.`.`.`.`.`.`.`.`.`.`.`j`j`j`j`j`j`j`j`j`j`j`j`j`j`j`j`j`j`j`j`j`j`j`j`j`.`.`.",
"`j`j`j`j`j`j`j`j`j`j`j`j`b`b`b`b`b`b`d`d`d`d`f`f`f`f`f`f`f`f`f`f`f`f`f`f`j`.`.`.",
"`j`c`c`c`c`c`b`b`d`d`d`b`b`g`g`g`g`g`g`g`g`g`g`g`g`b`b`b`b`b`d`d`d`d`c`c`j`l`l`.",
"`j`c`c`c`c`c`d`d`c`c`d`d`g`g`h`h`h`h`h`h`h`h`h`h`g`g`b`b`b`b`b`b`b`b`d`c`j`l`l`.",
"`j`c`c`c`c`c`c`c`d`d`g`g`h`h`d`d`b`b`b`b`b`b`b`d`h`h`g`b`b`b`b`d`d`d`d`d`j`l`l`.",
"`j`c`c`c`c`c`d`d`d`b`g`h`d`d`b`b`b`b`b`b`d`b`k`k`b`d`h`g`b`b`b`b`b`d`c`c`j`l`l`.",
"`j`c`c`c`d`d`b`b`b`b`g`h`d`b`b`k`k`b`b`b`d`k`d`d`k`d`b`h`g`b`b`b`b`b`b`c`j`l`l`.",
"`j`c`c`d`b`b`b`e`e`e`h`d`b`b`k`b`b`k`b`d`b`d```````k`d`h`g`e`e`e`b`d`d`b`j`l`l`.",
"`j`c`d`b`b`b`b`e`a`e`h`d`d`a`a`e`e`i`d`d`d`d```````d`d`d`h`e`a`e`b`d`c`d`j`l`l`.",
"`j`d`b`b`b`b`b`e`a`a`h`e`a`a`e```````e`a`e```#`#`#```e`a`h`a`a`e`b`d`d`c`j`l`l`.",
"`j`d`d`d`b`b`b`e`a`a`e`a`a`a`e```l```e`a`e```#`l`#```e`a`e`a`a`e`b`b`b`b`j`l`l`.",
"`j`d`d`b`b`b`b`b`e`a`e`a`a`e`e```````e`e`e```#`#`#```e`a`e`a`e`e`b`b`d`b`b`j`l`.",
"`j`d`d`d`b`b`b`d`d`e`e`a`a`e`e`e`e`e`a`a`a`e```````e`a`a`a`e`d`b`b`b`d`c`c`j`l`l",
"`j`d`c`d`b`b`b`d`d`e`a`a`a`a`a`a`a`a`e`e`e`a`e`e`e`a`l`a`a`a`e`d`b`b`b`d`d`j`l`l",
"`j`c`d`d`b`b`d`b`e`a`a`a`a`l`l`e`a`a`a`a`a`a`a`e`e`e`l`l`a`a`e`d`d`b`b`b`d`j`l`l",
"`.`j`d`b`b`d`d`b`e`a`a`l`l`l`l`l`#`e`e`e`e`e`e`````l`l`a`l`a`e`d`d`b`b`b`d`j`l`l",
"`.`j`d`b`b`d`b`d`d`e`e`a`a`a`e`l`l`#`#```````````l`l`a`a`e`e`d`d`d`d`b`d`c`j`l`l",
"`.`j`d`b`d`b`d`d`d`d`d`e`e`e`a`a`e```````````#`l`a`a`e`e`d`d`d`b`d`d`b`d`c`j`l`l",
"`.`j`d`d`d`b`d`d`d`d`d`d`d`d`e`e`a`e`e`e`e`e`e`a`e`e`d`d`d`b`b`b`d`c`b`c`c`j`l`l",
"`.`j`c`c`d`b`d`c`d`b`d`d`b`d`d`d`e`a`a`a`a`a`e`e`d`d`d`d`d`d`b`b`d`c`d`d`c`j`l`l",
"`.`j`c`c`d`b`c`c`d`b`d`d`b`d`d`d`d`e`a`a`e`e`d`d`d`d`d`j`j`j`j`j`j`j`j`j`j`j`l`l",
"`.`j`c`c`c`c`c`c`c`c`j`j`j`j`j`j`j`j`j`j`j`j`j`j`j`j`j`l`l`l`l`l`l`l`l`l`l`l`l`l",
"`.`j`j`j`j`j`j`j`j`j`l`l`l`l`l`l`l`l`l`l`l`l`l`l`l`l`l`l`l`l`l`l`l`l`l`l`l`l`l`l",
"`.`.`.`l`l`l`l`l`l`l`l`l`l`l`l`l`l`l`l`l`l`l`l`l`l`l`l`l`l`.`.`.`.`.`.`.`.`.`.`.",
"`.`.`.`l`l`l`l`l`l`l`l`l`.`.`.`.`.`.`.`.`.`.`.`.`.`.`.`.`.`.`.`.`.`.`.`.`.`.`.`."
};
