/* XPM */
static const char *MTRuntimeKeyTransform_xpm[] = {
/* width height num_colors chars_per_pixel */
"    40    31      256            2",
/* colors */
"`` c #140204",
"`. c #748284",
"`# c #7c0204",
"`a c #7c4a44",
"`b c #b4c2c4",
"`c c #7c2214",
"`d c #7c7674",
"`e c #dce2e4",
"`f c #bc8284",
"`g c #443e3c",
"`h c #9c0204",
"`i c #a42214",
"`j c #dcc6ac",
"`k c #b4aaa4",
"`l c #ac4634",
"`m c #4c0204",
"`n c #a4321c",
"`o c #bc624c",
"`p c #b4523c",
"`q c #ecd2ac",
"`r c #ecf2f4",
"`s c #b47674",
"`t c #7c1a0c",
"`u c #9c120c",
"`v c #dca284",
"`w c #bc9a94",
"`x c #545a5c",
"`y c #9ca2a4",
"`z c #a42a14",
"`A c #4c1e1c",
"`B c #8c0204",
"`C c #c4d2d4",
"`D c #9c1a0c",
"`E c #241a14",
"`F c #ece2d4",
"`G c #bc422c",
"`H c #b4321c",
"`I c #f4d2ac",
"`J c #cc7254",
"`K c #9c8a8c",
"`L c #bc523c",
"`M c #942214",
"`N c #cc8264",
"`O c #ecc2a4",
"`P c #b4b6b4",
"`Q c #640204",
"`R c #a43e2c",
"`S c #6c4234",
"`T c #ac4e3c",
"`U c #c46a4c",
"`V c #e4b294",
"`W c #8c0a04",
"`X c #ac1a14",
"`Y c #f4dabc",
"`Z c #bc5a44",
"`0 c #cccecc",
"`1 c #dceaec",
"`2 c #ac220c",
"`3 c #f4fafc",
"`4 c #545e5c",
"`5 c #b42a1c",
"`6 c #a41a14",
"`7 c #cc7a5c",
"`8 c #340204",
".` c #8c9694",
".. c #944e44",
".# c #3c4644",
".a c #4c0e04",
".b c #d49274",
".c c #ac2a14",
".d c #d4dedc",
".e c #44221c",
".f c #9c363c",
".g c #cc8a8c",
".h c #eccaa4",
".i c #848a8c",
".j c #7c0a04",
".k c #bccacc",
".l c #9c7e7c",
".m c #9c0a04",
".n c #94120c",
".o c #a41604",
".p c #6c1614",
".q c #d4d2d4",
".r c #eceaec",
".s c #9c2214",
".t c #d48a6c",
".u c #c4b6b4",
".v c #a43a3c",
".w c #cc6e54",
".x c #dcba9c",
".y c #9c5e5c",
".z c #847e7c",
".A c #bcaaac",
".B c #b4422c",
".C c #ac321c",
".D c #b47e7c",
".E c #acaeac",
".F c #940204",
".G c #9c1e0c",
".H c #2c2e2c",
".I c #bc4a34",
".J c #f4d6bc",
".K c #d4765c",
".L c #949a9c",
".M c #c4563c",
".N c #ac3a24",
".O c #b44a34",
".P c #c46e5c",
".Q c #940a04",
".R c #fcdab4",
".S c #c45e44",
".T c #e4eae4",
".U c #ac261c",
".V c #fcfafc",
".W c #645e54",
".X c #3c0204",
".Y c #9c5654",
".Z c #dc9a7c",
".0 c #f4ceac",
".1 c #8c8684",
".2 c #a40a0c",
".3 c #840204",
".4 c #8c2a24",
".5 c #847a74",
".6 c #e4e6e4",
".7 c #b48a84",
".8 c #543a3c",
"#` c #a42614",
"#. c #642624",
"## c #dcd6d4",
"#a c #6c524c",
"#b c #ac9a9c",
"#c c #744e4c",
"#d c #ac5a5c",
"#e c #342224",
"#f c #b43e2c",
"#g c #3c2e2c",
"#h c #c4725c",
"#i c #cc9e7c",
"#j c #4c4e4c",
"#k c #dcae8c",
"#l c #ac8a74",
"#m c #ecbe9c",
"#n c #5c0204",
"#o c #740204",
"#p c #ece6e4",
"#q c #d49a94",
"#r c #2c0a04",
"#s c #b4b2b4",
"#t c #741e14",
"#u c #841e1c",
"#v c #9c4e4c",
"#w c #acb6b4",
"#x c #140a04",
"#y c #bcaa94",
"#z c #e4c2a4",
"#A c #541a14",
"#B c #2c1e1c",
"#C c #d4866c",
"#D c #bcb6b4",
"#E c #d4cac4",
"#F c #5c6264",
"#G c #444a4c",
"#H c #540e0c",
"#I c #840e0c",
"#J c #c44a34",
"#K c #4c423c",
"#L c #c4624c",
"#M c #f4f2f4",
"#N c #a4a6a4",
"#O c #ccd2d4",
"#P c #945254",
"#Q c #c4cacc",
"#R c #94161c",
"#S c #b4463c",
"#T c #e4dad4",
"#U c #e4aa8c",
"#V c #f4e2cc",
"#W c #bcc2c4",
"#X c #540204",
"#Y c #942224",
"#Z c #6c0204",
"#0 c #ccb6b4",
"#1 c #e4ba9c",
"#2 c #bc3e2c",
"#3 c #7c261c",
"#4 c #9c160b",
"#5 c #a42e1c",
"#6 c #f4d6b4",
"#7 c #cc765c",
"#8 c #bc563e",
"a` c #b4babc",
"a. c #c46e54",
"a# c #8c0e0c",
"aa c #bc5e44",
"ab c #ac2614",
"ac c #a41e0f",
"ad c #cc7e64",
"ae c #ac2e1c",
"af c #ecceac",
"ag c #9c0e08",
"ah c #9c2618",
"ai c #b44634",
"aj c #ac3624",
"ak c #bc4e3c",
"al c #ac3e2c",
"am c #b44e38",
"an c #940e0c",
"ao c #fcdebc",
"ap c #e4eeec",
"aq c #dc9e84",
"ar c #8c8a8c",
"as c #6c5654",
"at c #dce6e4",
"au c #8c0604",
"av c #ecc6a4",
"aw c #e4b694",
"ax c #f4debc",
"ay c #f4fefc",
"az c #94160c",
"aA c #d4d6d4",
"aB c #eceeec",
"aC c #940604",
"aD c #fcfefc",
"aE c #840604",
"aF c #c4765c",
"aG c #e4c6a4",
"aH c #54120c",
"aI c #c4664c",
"aJ c #f4f6f4",
"aK c #ccd6d4",
"aL c #c4cecc",
"aM c #a42a1c",
"aN c #9c1a14",
"aO c #f4d2b4",
"aP c #cc725c",
"aQ c #cc826c",
"aR c #c46a54",
"aS c #bc5a4c",
"aT c #ac2214",
"aU c #cc7a64",
"aV c #ac2a1c",
"aW c #eccaac",
"aX c #a4160c",
"aY c #d48a74",
"aZ c #ac3224",
"a0 c #9c1e14",
"a1 c #ac3a2c",
"a2 c #e4eaec",
"a3 c #645e5c",
"a4 c #8c868c",
"a5 c #847a7c",
"a6 c #b48a8c",
"a7 c #a4261c",
"a8 c #2c0a0c",
/* pixels */
"aDaDaDaDaDaDaDaDaDaDaDaDaDaDaDaDaDaDaDaDaDaDay`w#q#0#s`b.6aDaDaDaDaDaDaDaDaDaDaD",
"aDaDaDaDaDaDaDaDaDaDaDaDaDaDaDaDaDaDaDaDaK#N#cah`i#5`l.7.1#Q.VaDaDaDaDaDaDaDaDaD",
"aDaDaDaDaDaDaDaDaDaDaDaDaDaDaDaDaDaDaBa3.X#Z#4aV`zak.Cac#f.y#saDaDaDaDaDaDaDaDaD",
"aDaDaDaDaDaDaDaDaDaDaDaDaDaDaDaDaDa`.e#oaXaeaeaM`i`paR.C#``u.v.AapaDaDaDaDaDaDaD",
"aDaDaDaDaDaDaDaDaDaDaDaD.VaD.VaDaK#.`B.U#5#`aM`z#`#8#7`Z#8a1aga##b`3aDaDaDaDaDaD",
"aDaDaDaDaDaDaDaDaDaDaDaDaDaDaDaD.D`B`iaM#`aiaj`i.Na..SaYaq`o.N.m`M.qaDaDaDaDaDaD",
"aDaDaDaDaDaDaDaD#M.qat#Q.`ar`y`P#uan.C#``L`p#``i.b`O.b`O#1.w#8#``B.gaDaDaDaDaDaD",
"aDaDaDaDaDaDaD#TaS`c.p#X`m#n`m`m`m#H`t`R.waZ.sai#m`q`YaOaf`7#Laj.n#R#paDaDaDaDaD",
"aDaDaDaDaDaD`e#3abaV.cababaTaT`6ag.3#o.4`o`z#``L#1.0awafaO#7`U.N`z`B`f.VaDaDaDaD",
"aDaDaDaDaD`3#aaM.O#`aMaMaM`z#`#5`z#``u`B`D#t`M.MaUadaIaQ.Z`U.P.BaMaC.f`raDaDaDaD",
"aDaDaDaDaD.z.j.I#L#``zaM`zajajaM`i`zaeaz`B.3.a`pa.#LaIaIaI#8aaai#`#4#I#DaDaDaDaD",
"aDaDaDaD.i..aT`LaF`LaM`i#5aj`LaIakaM#`ae`D.F#o.e.K#8#8#h`Jaiae.CaM`6#Za5aD.VaDaD",
"aDaDaD#w.8#2#`#8a.`Jaaa1ac#`#`al`J#LaMa0ae.n.F`8`S#2am.waRaj#`a7#5aX`m.LaDaDaDaD",
"aDaDaD`x.YabaaaIaPaaaUav#hae#`#`aj#h`Z#4`i.s.F`#``ahai#7`L#`aM`z`zaC``aLaDaDaDaD",
"aDaD.ra4#S#`#Laqav.b#m`I#6adaZ`z#`aj.waj.n#``W.F`8aH.IaI#5#`#`#5`X.X#GaDaDaDaDaD",
"aDaD.d.laX.N`o#C#6aOafaf`Y`V#L`naM`iai#8.G.n`u.F#n#r.c#`.Ga7#5`X`m.##MaDaDaDaDaD",
"aDaD#O#Pag`naR`U#1`qaO#m`v.taR#8#``z#`alaean.n.F`Q`Eaqa.aQav#i#A#jaJaDaDaDaDaDaD",
"aDaD`1#vaCaeaaaR#C#6aW`7aaaRaR.waZ#`aM#`#5`DaCaC#o#B`q`Y.h#y.i#QaDaDaDaDaDaDaDaD",
"aDaD#M#d.F`z#faP#L#CadaI.w`ZaR`Jal#`aM`z`z#``B`B`##B#V#V#TaBaDaD.VaDaDaDaDaDaDaD",
"aDaD`3`s`B#5`z#LaIam.waRa.aa#faR`L#``zaVaMaM.Q.F#n`xaDaDaDaD.VaDaDaDaDaDaDaDaDaD",
"aDaDaDa6`Ba0`zajaRaj`Za.`U.wal.C`p#`aM`zaMae`W`h.X#WaDaDaDaDaDaDaDaDaDaDaDaDaDaD",
"aD.VaD`K`#`uaM`iai.N`z#LaPa.#L#``zaMaV`i.G#`.Q#o#aaDaDaDaDaDaDaDaDaDaDaDaDaDaDaD",
"aDaDaD#O`m.F.sae#`#5#`#5.OaI#7ai#`#`.G.BaF#U#U`aa2aDaDaDaDaDaDaDaDaDaDaDaDaDaDaD",
"aDaDaDaD`d#Z.2ah`za7`zaV#`aeam`L`iaeaYaf`Y.R#l`0aDaDaDaDaDaDaDaDaDaDaDaDaDaDaDaD",
"aDaDaDaDaJ#g#n.2#`#5aM#`#`#`#4#4al#1axaf.0#z.uaD.VaDaDaDaDaDaDaDaDaDaDaDaDaDaDaD",
"aDaDaDaDaD.6.H.X`B`X.cae#4a1`7aR`O`Y.h.h`j#MaDaDaDaDaDaDaDaDaDaDaDaDaDaDaDaDaDaD",
"aDaDaDaDaDaD.r#F#r.X#n#o`TaW`qafaG.x.J`F#MaD.VaDaDaDaDaDaDaDaDaDaDaDaDaDaDaDaDaD",
"aDaDaDaDaDaDaDaDaK`.#F`g`g.W.5`k#EaA.VaDaDaDaDaDaDaDaDaDaDaDaDaDaDaDaDaDaDaDaDaD",
"aDaDaDaDaDaDaDaDaDaDaDaDaDaJaDaDaDaDaDaDaDaDaDaDaDaDaDaDaDaDaDaDaDaDaDaDaDaDaDaD",
"aDaDaDaDaDaDaDaDaD.V.VaDaDaDaDaDaDaDaDaDaDaDaDaDaDaDaDaDaDaDaDaDaDaDaDaDaDaDaDaD",
"aDaDaDaDaDaDaDaDaDaDaDaDaDaDaDaDaDaDaDaDaDaDaDaDaDaDaDaDaDaDaDaDaDaDaDaDaDaDaDaD"
};
